<?xml version="1.0" ?><svg data-name="Layer 1" id="Layer_1" viewBox="0 0 100 100" xmlns="http://www.w3.org/2000/svg"><title/><path d="M50,5A45,45,0,1,0,94.99994,50,45.00023,45.00023,0,0,0,50,5ZM80.40564,80.40552A42.99994,42.99994,0,1,1,93,50,42.86123,42.86123,0,0,1,80.40564,80.40552Z"/><path d="M74.98511,48.17511,54.27332,35.32361l-.00025-.00012a2.13355,2.13355,0,0,0-1.12634-.32355A2.147,2.147,0,0,0,51,37.14893v9.79443L32.27332,35.32361l-.00025-.00012a2.13355,2.13355,0,0,0-1.12634-.32355A2.147,2.147,0,0,0,29,37.14893V62.85107a2.14138,2.14138,0,0,0,3.27319,1.82538L51,53.05658v9.79449a2.14138,2.14138,0,0,0,3.27319,1.82538l20.712-12.85168a2.14815,2.14815,0,0,0-.00012-3.64966Zm-1.05432,1.9502-20.712,12.85162-.07214.02313-.10523-.04455-.0415-.10444V37.14893l.0415-.10444.10529-.04455.07233.02325-.00025-.00018L73.93073,49.87457,74,50ZM31.04144,62.95551l-.0415-.10444V37.14893l.0415-.10444.10529-.04455.07233.02325-.00025-.00018L51,49.29706v1.40582L31.21881,62.97693l-.07214.02313Z"/></svg>