<?xml version="1.0" ?><svg data-name="Layer 1" id="Layer_1" viewBox="0 0 100 100" xmlns="http://www.w3.org/2000/svg"><title/><path d="M50,5A45,45,0,1,0,94.99994,50,45.00019,45.00019,0,0,0,50,5Zm0,88A43.00014,43.00014,0,1,1,80.40564,80.40546,42.86106,42.86106,0,0,1,50,93Z"/><path d="M56.77734,48.87939a2.97009,2.97009,0,0,1-1.7774,3.93555V50.6568L53,52.65674V69.144a1.58236,1.58236,0,0,1-.567,1.22351,2.14272,2.14272,0,0,1-1.3905.509,2.02506,2.02506,0,0,1-1.27277-.44306l-7.76806-6.77844-1.41748,1.41748,7.898,6.89179.03375.02813a4.03028,4.03028,0,0,0,2.52661.884,4.134,4.134,0,0,0,2.70538-1.002A3.59384,3.59384,0,0,0,54.99994,69.144V54.899a4.97183,4.97183,0,0,0,3.25372-7.49591Z"/><path d="M62.67566,42.98108l-1.42749,1.42749a9.3426,9.3426,0,0,1-.8089,12.30334A1,1,0,1,0,61.8537,58.126a11.3526,11.3526,0,0,0,.822-15.1449Z"/><path d="M66.6806,38.97614,65.26624,40.3905a14.24328,14.24328,0,0,1-.35608,19.79236,1,1,0,1,0,1.41406,1.41449,16.242,16.242,0,0,0,.35638-22.62121Z"/><path d="M70.64429,35.01245,69.281,36.37573a.95139.95139,0,0,0,.10083.15174h-.00007a19.18174,19.18174,0,0,1-.00006,27.12719A1,1,0,1,0,70.796,65.06891,21.18213,21.18213,0,0,0,70.7959,35.1131.95032.95032,0,0,0,70.64429,35.01245Z"/><path d="M26.5,58.99994h7.125l.91754.80066L35.96,58.38312,35,57.54541V42.45453L49.76971,29.56641a2.024,2.024,0,0,1,1.27277-.44312,2.14266,2.14266,0,0,1,1.39056.509A1.5826,1.5826,0,0,1,53,30.856V41.34314l1.99994-1.99994V30.856a3.59394,3.59394,0,0,0-1.252-2.73065,4.13409,4.13409,0,0,0-2.70544-1.002,4.02957,4.02957,0,0,0-2.52679.88428l-.03357.028L33.625,41H26.5a3.34964,3.34964,0,0,0-2.51819,1.18066A4.06186,4.06186,0,0,0,23,44.85693V55.14307a4.06177,4.06177,0,0,0,.98181,2.6762A3.34961,3.34961,0,0,0,26.5,58.99994Zm-1.50006-14.143a2.06662,2.06662,0,0,1,.48694-1.35919A1.34812,1.34812,0,0,1,26.5,42.99994h6.49994L33,57H26.5a1.34812,1.34812,0,0,1-1.01312-.4978,2.06658,2.06658,0,0,1-.48694-1.35913Z"/><path d="M75.29285,23.29285l-52,52a1,1,0,0,0,1.41424,1.41424l52-52a1,1,0,0,0-1.41424-1.41424Z"/></svg>