<?xml version="1.0" ?><svg data-name="Layer 1" id="Layer_1" viewBox="0 0 100 100" xmlns="http://www.w3.org/2000/svg"><title/><path d="M50,5A45,45,0,1,0,94.99994,50,45.00023,45.00023,0,0,0,50,5ZM80.40564,80.40552A42.99994,42.99994,0,1,1,93,50,42.86123,42.86123,0,0,1,80.40564,80.40552Z"/><path d="M68.85315,34.99994a2.13327,2.13327,0,0,0-1.12653.32367L48.99994,46.94336V37.14893a2.14133,2.14133,0,0,0-3.27332-1.82532L25.01471,48.17517a2.14817,2.14817,0,0,0,.00018,3.64972L45.72662,64.67633A2.13192,2.13192,0,0,0,46.85315,65a2.147,2.147,0,0,0,2.14679-2.14893V53.05658L67.72662,64.67633A2.13192,2.13192,0,0,0,68.85315,65a2.147,2.147,0,0,0,2.14679-2.14893V37.14893a2.14711,2.14711,0,0,0-2.14679-2.149ZM69,62.85107l-.0415.10437-.10535.04462-.07178-.023L48.99994,50.70288V49.29706L68.78113,37.023l.072-.02307.10529.04462L69,37.14893ZM25.99994,50l.06909-.12531L46.78113,37.023l.072-.02307.10529.04462L47,37.14893V62.85107l-.0415.10437-.10535.04462-.07178-.023L26.06921,50.12537Z"/></svg>